<svg width="24" height="25" viewBox="0 0 24 25" fill="none" xmlns="http://www.w3.org/2000/svg">
<path d="M15.7784 11.6877C18.7003 11.6877 21.0379 14.0252 21.0379 16.9472C21.0379 17.9757 20.7457 18.9341 20.2314 19.7522L23.8312 23.3754L22.2066 25L18.5601 21.4119C17.7536 21.9144 16.7952 22.2066 15.7784 22.2066C12.8565 22.2066 10.5189 19.8691 10.5189 16.9472C10.5189 14.0252 12.8565 11.6877 15.7784 11.6877ZM15.7784 14.0252C15.0035 14.0252 14.2603 14.3331 13.7123 14.8811C13.1643 15.429 12.8565 16.1722 12.8565 16.9472C12.8565 17.7221 13.1643 18.4653 13.7123 19.0133C14.2603 19.5613 15.0035 19.8691 15.7784 19.8691C16.5533 19.8691 17.2965 19.5613 17.8445 19.0133C18.3925 18.4653 18.7003 17.7221 18.7003 16.9472C18.7003 16.1722 18.3925 15.429 17.8445 14.8811C17.2965 14.3331 16.5533 14.0252 15.7784 14.0252ZM20.4535 0C20.6085 0 20.7571 0.0615691 20.8667 0.171163C20.9763 0.280756 21.0379 0.429397 21.0379 0.584385V11.4656C20.36 10.8228 19.5769 10.2969 18.7003 9.93455V3.15568L15.194 4.51145V9.35016C14.3759 9.43198 13.5811 9.63067 12.8565 9.93455V4.52314L8.18139 2.88686V16.9472C8.18139 17.6952 8.28658 18.4198 8.48527 19.0977L7.01262 18.5835L0.771389 21.0028L0.584385 21.0379C0.429397 21.0379 0.280756 20.9763 0.171163 20.8667C0.0615691 20.7571 0 20.6085 0 20.4535V2.78167C0 2.51286 0.175315 2.30248 0.420757 2.22066L7.01262 0L14.0252 2.45442L20.2665 0.0350631L20.4535 0ZM2.33754 4.04395V17.8939L5.84385 16.5381V2.86349L2.33754 4.04395Z" fill="white"/>
</svg>
