<svg width="24" height="24" viewBox="0 0 24 24" fill="none" xmlns="http://www.w3.org/2000/svg">
<path d="M14.623 5.00934V9.63056L16.2397 10.6473C16.2981 10.6598 16.3584 10.6598 16.4168 10.6473L23.3677 5.96109C23.3626 5.73366 23.2794 5.5149 23.132 5.34159C22.9847 5.16827 22.7822 5.05095 22.5585 5.00934H14.623Z" fill="#FDFDFD"/>
<path d="M14.623 11.3543L16.0971 12.3668C16.166 12.4091 16.2453 12.4314 16.3261 12.4314C16.407 12.4314 16.4863 12.4091 16.5552 12.3668C16.3021 12.5196 23.3668 7.82916 23.3668 7.82916V16.3223C23.3852 16.4944 23.3658 16.6685 23.31 16.8323C23.2541 16.9961 23.1631 17.1458 23.0433 17.2707C22.9236 17.3957 22.778 17.493 22.6167 17.5558C22.4554 17.6186 22.2824 17.6454 22.1096 17.6344H14.6222L14.623 11.3543ZM6.99216 9.22388C6.74726 9.22279 6.50662 9.28792 6.29571 9.41239C6.0848 9.53686 5.91146 9.71603 5.79403 9.93094C5.47346 10.5008 5.31967 11.1493 5.35022 11.8024C5.31691 12.4541 5.47092 13.1018 5.79403 13.6688C5.9109 13.8749 6.07996 14.0466 6.28422 14.1667C6.48848 14.2868 6.72075 14.351 6.95769 14.3529C7.19463 14.3548 7.42789 14.2942 7.63403 14.1774C7.84018 14.0606 8.01194 13.8916 8.13206 13.6873C8.45229 13.1232 8.60315 12.4787 8.56659 11.8311C8.60315 11.1631 8.45732 10.4979 8.14472 9.90647C8.0327 9.69875 7.86623 9.52546 7.66318 9.40521C7.46012 9.28495 7.22815 9.22226 6.99216 9.22388Z" fill="#FDFDFD"/>
<path d="M0 2.66203V20.7411L13.7531 23.625V0L0 2.66203ZM9.20363 14.758C8.9464 15.1208 8.60432 15.4151 8.20723 15.6152C7.81014 15.8154 7.3701 15.9153 6.9255 15.9064C6.49211 15.9141 6.06326 15.817 5.67544 15.6234C5.28762 15.4298 4.9523 15.1453 4.698 14.7943C4.09494 13.9522 3.79323 12.9315 3.84159 11.8969C3.79041 10.8115 4.09756 9.73946 4.71572 8.84587C4.9764 8.47642 5.32389 8.17669 5.72761 7.97306C6.13133 7.76943 6.57891 7.66815 7.03097 7.67813C7.46118 7.66979 7.88687 7.76703 8.27079 7.96134C8.6547 8.15565 8.98513 8.44111 9.23316 8.79272C9.83019 9.65306 10.1268 10.6863 10.0769 11.7323C10.1297 12.8099 9.82247 13.8743 9.20363 14.758Z" fill="#FDFDFD"/>
</svg>
