<svg width="28" height="27" viewBox="0 0 28 27" fill="none" xmlns="http://www.w3.org/2000/svg">
<path d="M26.148 25.0714H23.2479V1.92857H24.2146C24.471 1.92857 24.7169 1.82698 24.8982 1.64614C25.0795 1.4653 25.1813 1.22003 25.1813 0.964286C25.1813 0.708541 25.0795 0.463271 24.8982 0.282433C24.7169 0.101594 24.471 0 24.2146 0H2.94743C2.69105 0 2.44517 0.101594 2.26388 0.282433C2.08259 0.463271 1.98074 0.708541 1.98074 0.964286C1.98074 1.22003 2.08259 1.4653 2.26388 1.64614C2.44517 1.82698 2.69105 1.92857 2.94743 1.92857H3.91412V25.0714H1.01405C0.757671 25.0714 0.51179 25.173 0.3305 25.3539C0.149211 25.5347 0.0473633 25.78 0.0473633 26.0357C0.0473633 26.2915 0.149211 26.5367 0.3305 26.7176C0.51179 26.8984 0.757671 27 1.01405 27H26.148C26.4044 27 26.6503 26.8984 26.8316 26.7176C27.0128 26.5367 27.1147 26.2915 27.1147 26.0357C27.1147 25.78 27.0128 25.5347 26.8316 25.3539C26.6503 25.173 26.4044 25.0714 26.148 25.0714ZM5.84751 1.92857H21.3146V25.0714H17.4478V20.25C17.4478 19.9943 17.3459 19.749 17.1647 19.5681C16.9834 19.3873 16.7375 19.2857 16.4811 19.2857H10.681C10.4246 19.2857 10.1787 19.3873 9.99741 19.5681C9.81612 19.749 9.71427 19.9943 9.71427 20.25V25.0714H5.84751V1.92857ZM15.5144 25.0714H11.6476V21.2143H15.5144V25.0714ZM8.74758 5.78571C8.74758 5.52997 8.84942 5.2847 9.03071 5.10386C9.212 4.92302 9.45788 4.82143 9.71427 4.82143H11.6476C11.904 4.82143 12.1499 4.92302 12.3312 5.10386C12.5125 5.2847 12.6143 5.52997 12.6143 5.78571C12.6143 6.04146 12.5125 6.28673 12.3312 6.46757C12.1499 6.64841 11.904 6.75 11.6476 6.75H9.71427C9.45788 6.75 9.212 6.64841 9.03071 6.46757C8.84942 6.28673 8.74758 6.04146 8.74758 5.78571ZM14.5477 5.78571C14.5477 5.52997 14.6496 5.2847 14.8309 5.10386C15.0121 4.92302 15.258 4.82143 15.5144 4.82143H17.4478C17.7042 4.82143 17.9501 4.92302 18.1313 5.10386C18.3126 5.2847 18.4145 5.52997 18.4145 5.78571C18.4145 6.04146 18.3126 6.28673 18.1313 6.46757C17.9501 6.64841 17.7042 6.75 17.4478 6.75H15.5144C15.258 6.75 15.0121 6.64841 14.8309 6.46757C14.6496 6.28673 14.5477 6.04146 14.5477 5.78571ZM8.74758 10.6071C8.74758 10.3514 8.84942 10.1061 9.03071 9.92529C9.212 9.74445 9.45788 9.64286 9.71427 9.64286H11.6476C11.904 9.64286 12.1499 9.74445 12.3312 9.92529C12.5125 10.1061 12.6143 10.3514 12.6143 10.6071C12.6143 10.8629 12.5125 11.1082 12.3312 11.289C12.1499 11.4698 11.904 11.5714 11.6476 11.5714H9.71427C9.45788 11.5714 9.212 11.4698 9.03071 11.289C8.84942 11.1082 8.74758 10.8629 8.74758 10.6071ZM14.5477 10.6071C14.5477 10.3514 14.6496 10.1061 14.8309 9.92529C15.0121 9.74445 15.258 9.64286 15.5144 9.64286H17.4478C17.7042 9.64286 17.9501 9.74445 18.1313 9.92529C18.3126 10.1061 18.4145 10.3514 18.4145 10.6071C18.4145 10.8629 18.3126 11.1082 18.1313 11.289C17.9501 11.4698 17.7042 11.5714 17.4478 11.5714H15.5144C15.258 11.5714 15.0121 11.4698 14.8309 11.289C14.6496 11.1082 14.5477 10.8629 14.5477 10.6071ZM8.74758 15.4286C8.74758 15.1728 8.84942 14.9276 9.03071 14.7467C9.212 14.5659 9.45788 14.4643 9.71427 14.4643H11.6476C11.904 14.4643 12.1499 14.5659 12.3312 14.7467C12.5125 14.9276 12.6143 15.1728 12.6143 15.4286C12.6143 15.6843 12.5125 15.9296 12.3312 16.1104C12.1499 16.2913 11.904 16.3929 11.6476 16.3929H9.71427C9.45788 16.3929 9.212 16.2913 9.03071 16.1104C8.84942 15.9296 8.74758 15.6843 8.74758 15.4286ZM14.5477 15.4286C14.5477 15.1728 14.6496 14.9276 14.8309 14.7467C15.0121 14.5659 15.258 14.4643 15.5144 14.4643H17.4478C17.7042 14.4643 17.9501 14.5659 18.1313 14.7467C18.3126 14.9276 18.4145 15.1728 18.4145 15.4286C18.4145 15.6843 18.3126 15.9296 18.1313 16.1104C17.9501 16.2913 17.7042 16.3929 17.4478 16.3929H15.5144C15.258 16.3929 15.0121 16.2913 14.8309 16.1104C14.6496 15.9296 14.5477 15.6843 14.5477 15.4286Z" fill="white"/>
</svg>
