<svg width="48" height="48" viewBox="0 0 48 48" fill="none" xmlns="http://www.w3.org/2000/svg">
<path d="M2.66667 48C1.91112 48 1.27823 47.744 0.768009 47.232C0.257787 46.72 0.00178697 46.0871 9.19539e-06 45.3333C-0.00176858 44.5795 0.254232 43.9466 0.768009 43.4346C1.28179 42.9226 1.91468 42.6666 2.66667 42.6666H5.33334V2.66666C5.33334 1.91111 5.58934 1.27822 6.10134 0.768C6.61334 0.257778 7.24623 0.00177778 8.00001 0H26.6667C27.4222 0 28.056 0.256 28.568 0.768C29.08 1.28 29.3351 1.91289 29.3333 2.66666H40C40.7556 2.66666 41.3893 2.92266 41.9013 3.43466C42.4133 3.94666 42.6684 4.57955 42.6667 5.33333V42.6666H45.3333C46.0889 42.6666 46.7227 42.9226 47.2347 43.4346C47.7467 43.9466 48.0018 44.5795 48 45.3333C47.9982 46.0871 47.7422 46.7209 47.232 47.2346C46.7218 47.7484 46.0889 48.0035 45.3333 48H40C39.2444 48 38.6115 47.744 38.1013 47.232C37.5911 46.72 37.3351 46.0871 37.3333 45.3333V7.99999H29.3333V45.3333C29.3333 46.0889 29.0773 46.7226 28.5653 47.2346C28.0533 47.7466 27.4204 48.0017 26.6667 48H2.66667ZM24 24C24 23.2444 23.744 22.6115 23.232 22.1013C22.72 21.5911 22.0871 21.3351 21.3333 21.3333C20.5796 21.3315 19.9467 21.5875 19.4347 22.1013C18.9227 22.6151 18.6667 23.248 18.6667 24C18.6667 24.752 18.9227 25.3858 19.4347 25.9013C19.9467 26.4169 20.5796 26.672 21.3333 26.6666C22.0871 26.6613 22.7209 26.4053 23.2347 25.8986C23.7484 25.392 24.0036 24.7591 24 24Z" fill="#FDFDFD"/>
</svg>
