<svg width="54" height="48" viewBox="0 0 54 48" fill="none" xmlns="http://www.w3.org/2000/svg">
<path d="M49.0909 28.8H4.90909V4.8H49.0909M49.0909 0H4.90909C2.18455 0 0 2.136 0 4.8V33.6C0 34.873 0.517206 36.0939 1.43784 36.9941C2.35847 37.8943 3.60712 38.4 4.90909 38.4H22.0909L17.1818 45.6V48H36.8182V45.6L31.9091 38.4H49.0909C50.3929 38.4 51.6415 37.8943 52.5622 36.9941C53.4828 36.0939 54 34.873 54 33.6V4.8C54 3.52696 53.4828 2.30606 52.5622 1.40589C51.6415 0.505713 50.3929 0 49.0909 0Z" fill="#FDFDFD"/>
</svg>
