<svg width="345" height="373" viewBox="0 0 345 373" fill="none" xmlns="http://www.w3.org/2000/svg">
<path d="M49.5011 362.603C44.3134 362.605 39.1763 361.584 34.3832 359.599C29.5901 357.614 25.2351 354.705 21.5668 351.037C17.8985 347.368 14.989 343.013 13.0043 338.22C11.0196 333.427 9.99875 328.29 10 323.102V203.798C9.99875 198.611 11.0196 193.474 13.0043 188.681C14.989 183.888 17.8985 179.532 21.5668 175.864C25.2351 172.196 29.5901 169.286 34.3832 167.302C39.1763 165.317 44.3134 164.296 49.5011 164.297H202.741C223.487 164.297 240.374 147.42 240.374 126.655C240.374 105.889 223.487 89.0022 202.731 89.0022H49.5106C39.0343 89.0022 28.987 84.8405 21.5791 77.4326C14.1712 70.0247 10.0095 59.9775 10.0095 49.5011C10.0095 39.0248 14.1712 28.9775 21.5791 21.5696C28.987 14.1617 39.0343 10 49.5106 10H202.75C267.067 10 319.386 62.3378 319.386 126.645C319.386 190.952 267.067 243.3 202.741 243.3H103.012C95.2797 243.3 89.0117 249.568 89.0117 257.3V323.102C89.013 328.29 87.9921 333.427 86.0075 338.22C84.0228 343.013 81.1132 347.368 77.4449 351.037C73.7767 354.705 69.4216 357.614 64.6285 359.599C59.8355 361.584 54.6984 362.605 49.5106 362.603M99.7805 164.297L20.1588 75.9559M263.894 225.946L325.418 296.657C332.16 304.48 335.572 314.631 334.922 324.938C334.272 335.245 329.612 344.887 321.941 351.801C314.27 358.715 304.196 362.351 293.878 361.929C283.559 361.508 273.816 357.064 266.734 349.548L170.978 243.3M144.742 89.0023L209.678 163.63" stroke="#252525" stroke-width="20" stroke-linecap="round" stroke-linejoin="round"/>
</svg>
